<svg width="54" height="54" viewBox="0 0 54 54" fill="none" xmlns="http://www.w3.org/2000/svg">
<circle cx="27" cy="27" r="27" fill="#BCFF87" fill-opacity="0.5"/>
<path d="M39.8414 32.3342C40.5636 30.7198 40.9353 28.9895 40.9353 27.242C40.9353 23.7129 39.4212 20.3283 36.7261 17.8328C34.0311 15.3374 30.3757 13.9354 26.5643 13.9354C22.7529 13.9354 19.0976 15.3374 16.4025 17.8328C13.7074 20.3283 12.1934 23.7129 12.1934 27.242C12.1934 28.9895 12.5651 30.7198 13.2873 32.3342C14.0095 33.9487 15.0681 35.4156 16.4025 36.6512C17.737 37.8869 19.3212 38.867 21.0648 39.5357C22.8084 40.2045 24.6771 40.5486 26.5643 40.5486C28.4515 40.5486 30.3203 40.2045 32.0639 39.5357C33.8074 38.867 35.3917 37.8869 36.7261 36.6512C38.0606 35.4156 39.1192 33.9487 39.8414 32.3342Z" fill="#E8FFD6"/>
<path d="M31.08 31.4233C29.8822 32.532 28.258 33.1548 26.5643 33.1548C24.8707 33.1548 23.2464 32.532 22.0486 31.4233M21.774 24.285H21.79M31.3547 24.285H31.3706M40.9353 27.242C40.9353 28.9895 40.5636 30.7198 39.8414 32.3342C39.1192 33.9487 38.0606 35.4156 36.7261 36.6512C35.3917 37.8869 33.8074 38.867 32.0639 39.5357C30.3203 40.2045 28.4515 40.5486 26.5643 40.5486C24.6771 40.5486 22.8084 40.2045 21.0648 39.5357C19.3212 38.867 17.737 37.8869 16.4025 36.6512C15.0681 35.4156 14.0095 33.9487 13.2873 32.3342C12.5651 30.7198 12.1934 28.9895 12.1934 27.242C12.1934 23.7129 13.7074 20.3283 16.4025 17.8328C19.0976 15.3374 22.7529 13.9354 26.5643 13.9354C30.3757 13.9354 34.0311 15.3374 36.7261 17.8328C39.4212 20.3283 40.9353 23.7129 40.9353 27.242Z" stroke="#6AAF35" stroke-width="3" stroke-linecap="round" stroke-linejoin="round"/>
</svg>
